<svg xmlns="http://www.w3.org/2000/svg" width="499.998" height="260.736" viewBox="0 0 162.94 84.969">
  <defs>
    <style>
      .cls-1 {
        fill:#fe7223;
        fill-rule: evenodd;
      }
    </style>
  </defs>
  <path id="logo" class="cls-1" d="M1438.33,39.885L1409.56,23.22a9.137,9.137,0,0,0-9.14,0l-28.78,16.663a9.269,9.269,0,0,0-4.41,6.126,10.666,10.666,0,0,0-.17,1.895,9.243,9.243,0,0,0,4.58,7.645l16.56,9.583a12.94,12.94,0,0,1,5.24,5.748L1401.81,89a3.474,3.474,0,0,0,6.33-.016l8.16-17.922a12.752,12.752,0,0,1,5.27-5.805l16.76-9.7c0.25-.146.49-0.3,0.72-0.468V81.138a5.322,5.322,0,0,1-2.64,4.607l-28.77,16.663a5.3,5.3,0,0,1-5.3,0l-28.77-16.663a5.332,5.332,0,0,1-2.66-4.607V64.491a1.907,1.907,0,0,0-1.92-1.928,1.927,1.927,0,0,0-1.93,1.928V81.138a9.223,9.223,0,0,0,4.58,7.946l28.78,16.662a9.118,9.118,0,0,0,9.14,0l28.77-16.664a9.218,9.218,0,0,0,4.57-7.944V47.575a9.273,9.273,0,0,0-4.57-7.691m0.72,7.924a5.35,5.35,0,0,1-2.64,4.388l-16.76,9.7a16.641,16.641,0,0,0-6.85,7.555l-7.89,17.084-7.99-17.277a16.547,16.547,0,0,0-6.8-7.465l-16.56-9.6a5.118,5.118,0,0,1,.01-8.975l28.77-16.663a5.318,5.318,0,0,1,5.3,0l28.77,16.663a5.3,5.3,0,0,1,2.64,4.587m45.98,10.01-1.34-3.156-4.18-9.814-0.16-.345-0.24-.557a1.589,1.589,0,0,0-2.62,0,3.361,3.361,0,0,0-.24.557l-0.16.345-4.31,9.814-1.4,3.156-0.45,1.035a1.516,1.516,0,0,0-.16.663,1.569,1.569,0,0,0,2.99.636l1.03-2.335h7.83l1.01,2.335a1.565,1.565,0,0,0,2.99-.663,1.822,1.822,0,0,0-.14-0.636Zm-9.86-3.156,1.4-3.182,1.19-2.706,1.16,2.706,1.35,3.182h-5.1Zm52.59,3.991-2.57-3.659a5.788,5.788,0,0,0,4.12-5.218c0-3.375-2.32-5.882-6.15-5.882h-8.12v4.783h-0.01v10.8h0a1.58,1.58,0,0,0,3.16,0h0V55.627h3.71l3.37,4.789h0a1.525,1.525,0,0,0,2.49-1.761h0Zm-9.57-6.028V46.9h4.72c2.26,0,3.25,1.331,3.25,2.879,0,1.517-.99,2.849-3.25,2.849h-4.72Zm-49.78-8.677a1.522,1.522,0,0,0-2.09.494h0l-3.65,5.95-3.65-5.95h0a1.527,1.527,0,0,0-2.6,1.6h0l4.69,7.645,0.05,2.639v3.21h0a1.52,1.52,0,0,0,3.04,0h0.01V55.448l0.04-1.8,4.67-7.6h0a1.531,1.531,0,0,0-.51-2.095m23.41,4.291c0-1.02.99-2.322,3.58-2.322a6.293,6.293,0,0,1,4.65,2.023,1.55,1.55,0,0,0,2.34-1.954,2.821,2.821,0,0,0-.85-0.841,7.935,7.935,0,0,0-.88-0.6,8.808,8.808,0,0,0-1.97-.862,10.842,10.842,0,0,0-3.1-.431c-3.89,0-7.07,2.106-7.07,5.139,0,7,10.99,3.312,10.99,7.121,0,1.639-1.67,2.538-4.08,2.569a7.091,7.091,0,0,1-5.06-2.322l-0.02.015a1.558,1.558,0,0,0-1.22-.61,1.6,1.6,0,0,0-1.11,2.755,10.121,10.121,0,0,0,7.29,3.134c3.89,0,7.5-2.136,7.5-5.7,0-7.121-10.99-3.282-10.99-7.121m18.06-4.518h-2.07a0.512,0.512,0,0,0-.51.512v16.31a0.513,0.513,0,0,0,.51.512h2.07a0.513,0.513,0,0,0,.51-0.512V44.233a0.512,0.512,0,0,0-.51-0.512m0.51-3.475a1.535,1.535,0,1,1-1.54-1.54,1.541,1.541,0,0,1,1.54,1.54m-36.36,41.242a1.816,1.816,0,0,0-.92.253,1.9,1.9,0,0,0-.69.683,1.827,1.827,0,0,0-.26.942,1.65,1.65,0,0,0,.26.878,1.913,1.913,0,0,0,.69.65,1.87,1.87,0,0,0,.92.245,1.8,1.8,0,0,0,.9-0.245,1.864,1.864,0,0,0,.67-0.654,1.71,1.71,0,0,0,.24-0.874,1.854,1.854,0,0,0-.53-1.329,1.748,1.748,0,0,0-1.28-.548m-4.22,0a1.707,1.707,0,0,0-1.27.549,1.848,1.848,0,0,0-.53,1.328,1.629,1.629,0,0,0,.25.874,1.874,1.874,0,0,0,.65.653,1.789,1.789,0,0,0,2.18-.288,1.717,1.717,0,0,0,.53-1.24,1.851,1.851,0,0,0-.53-1.328,1.713,1.713,0,0,0-1.28-.549m58.98-13.878a1.65,1.65,0,1,0-3.3,0v9.2h-7.05v-9.2a1.654,1.654,0,0,0-1.65-1.654h-0.04a1.654,1.654,0,0,0-1.65,1.654v9.2h-3.88V68.59a1.653,1.653,0,0,0-1.65-1.653h-0.04a1.653,1.653,0,0,0-1.65,1.653v8.216h-3.89V68.59a1.653,1.653,0,0,0-1.65-1.653h-0.04a1.653,1.653,0,0,0-1.65,1.653v8.216h-26.88V67.617a1.66,1.66,0,1,0-3.32,0v9.189h-6.82V67.617a1.67,1.67,0,0,0-3.34,0V79.71a4.186,4.186,0,0,1-.78,2.675,2.858,2.858,0,0,1-2.39.962h-1.09V83.38a1.569,1.569,0,0,0,0,3.123v0.034h1.33a5.928,5.928,0,0,0,4.69-1.775,7.392,7.392,0,0,0,1.58-4.825h65.16V67.611Zm-4.83,13.878a1.723,1.723,0,0,0-1.27.549,1.843,1.843,0,0,0-.52,1.328,1.71,1.71,0,0,0,.24.874,1.9,1.9,0,0,0,.66.653,1.749,1.749,0,0,0,.89.246,1.781,1.781,0,0,0,1.29-.534,1.717,1.717,0,0,0,.53-1.24,1.851,1.851,0,0,0-.53-1.328,1.75,1.75,0,0,0-1.29-.549m5.5,0.548a1.711,1.711,0,0,0-1.27-.548,1.763,1.763,0,0,0-.92.254,1.89,1.89,0,0,0-.69.683,1.736,1.736,0,0,0-.26.942,1.566,1.566,0,0,0,.26.878,1.9,1.9,0,0,0,.69.65,1.821,1.821,0,0,0,2.48-.654,1.624,1.624,0,0,0,.25-0.873,1.823,1.823,0,0,0-.54-1.329" transform="translate(-1367.06 -22)"/>
</svg>
