<svg xmlns="http://www.w3.org/2000/svg" xmlns:xlink="http://www.w3.org/1999/xlink" width="281" height="152" viewBox="0 0 281 152">
  <defs>
    <clipPath id="clip-path">
      <rect id="Rectangle_5879" data-name="Rectangle 5879" width="281" height="152" transform="translate(-6459 12481)" fill="#fff" stroke="#707070" stroke-width="1"/>
    </clipPath>
    <clipPath id="clip-path-2">
      <rect id="Rectangle_5850" data-name="Rectangle 5850" width="363.326" height="218.768" fill="#fff"/>
    </clipPath>
    <clipPath id="clip-path-14">
      <rect id="Rectangle_5863" data-name="Rectangle 5863" width="363.326" height="218.768" transform="translate(0)" fill="#fff"/>
    </clipPath>
    <clipPath id="clip-path-17">
      <rect id="Rectangle_5868" data-name="Rectangle 5868" width="363.326" height="218.768" transform="translate(0 0)" fill="#fff"/>
    </clipPath>
    <clipPath id="clip-path-21">
      <path id="Path_5774" data-name="Path 5774" d="M260.1,67.54l4.457,16.268a28.39,28.39,0,0,1,5.051-.446,30.023,30.023,0,0,1,30.011,30.011c0,16.417-15.674,29.64-32.017,29.862l3.566,16.937a46.862,46.862,0,0,0,2.451-93.524,36.205,36.205,0,0,0-4.011-.149,58.188,58.188,0,0,0-9.508,1.04" transform="translate(-260.1 -66.5)" fill="#fff"/>
    </clipPath>
  </defs>
  <g id="Mask_Group_17" data-name="Mask Group 17" transform="translate(6459 -12481)" clip-path="url(#clip-path)">
    <g id="ANA_EGABY_1_" data-name="ANA EGABY (1)" transform="translate(-6457.422 12512.137)">
      <g id="Group_9206" data-name="Group 9206" transform="translate(-103.681 -213.136)">
        <g id="Group_9187" data-name="Group 9187" transform="translate(77.019 158.328)" clip-path="url(#clip-path-2)">
          <path id="Path_5762" data-name="Path 5762" d="M198.768,110.6h0v43.382h8.394l9.211,8.766H187.7V121.743A11.065,11.065,0,0,1,198.768,110.6" transform="translate(-48.268 -28.441)" fill="#fff"/>
        </g>
        <g id="Group_9188" data-name="Group 9188" transform="translate(77.019 158.328)" clip-path="url(#clip-path-2)">
          <path id="Path_5763" data-name="Path 5763" d="M327.194,157.945h10.474V137.368A11.1,11.1,0,0,1,348.737,126.3v40.411H318.8Z" transform="translate(-81.981 -32.479)" fill="#fff"/>
        </g>
        <g id="Group_9189" data-name="Group 9189" transform="translate(77.019 158.328)" clip-path="url(#clip-path-2)">
          <path id="Path_5764" data-name="Path 5764" d="M366.474,192.166a17.7,17.7,0,0,1,2.451.149,2.062,2.062,0,0,1-.817-1.783,3.8,3.8,0,0,1,1.56-3.12,7.554,7.554,0,0,1,4.9-1.411,9.072,9.072,0,0,1,2.749.3l-.52,3.194a19.829,19.829,0,0,0-2.377-.223c-1.411,0-2.08.446-2.08,1.337,0,.966.966,1.486,2.971,1.486h2.823v3.269H366.4v-3.194Z" transform="translate(-94.221 -47.831)" fill="#fff"/>
        </g>
        <g id="Group_9190" data-name="Group 9190" transform="translate(77.019 158.328)" clip-path="url(#clip-path-2)">
          <path id="Path_5765" data-name="Path 5765" d="M378.043,111.4h0v51.479H366.9V122.468A11.112,11.112,0,0,1,378.043,111.4" transform="translate(-94.35 -28.647)" fill="#fff"/>
        </g>
        <g id="Group_9191" data-name="Group 9191" transform="translate(77.019 158.328)" clip-path="url(#clip-path-2)">
          <path id="Path_5766" data-name="Path 5766" d="M205.293,146.12a.674.674,0,0,0,.223-.52c-.149.149-.3.3-.223.52" transform="translate(-52.787 -37.442)" fill="#fff"/>
        </g>
        <g id="Group_9192" data-name="Group 9192" transform="translate(23.766 348.223) rotate(-45)" clip-path="url(#clip-path-2)">
          <rect id="Rectangle_5855" data-name="Rectangle 5855" width="13.594" height="13.594" transform="translate(195.814 152.432)" fill="#fff"/>
        </g>
        <g id="Group_9193" data-name="Group 9193" transform="translate(77.019 158.328)" clip-path="url(#clip-path-2)">
          <path id="Path_5767" data-name="Path 5767" d="M220.551,85.2h0v23.1h3.863v4.011H215.5V90.251a4.964,4.964,0,0,1,5.051-5.051" transform="translate(-55.416 -21.91)" fill="#fff"/>
        </g>
        <g id="Group_9194" data-name="Group 9194" transform="translate(77.019 158.328)" clip-path="url(#clip-path-2)">
          <path id="Path_5768" data-name="Path 5768" d="M226.4,111.44h5.423v-8.988a5.057,5.057,0,0,1,5.051-5.051v18.051H226.4Z" transform="translate(-58.22 -25.047)" fill="#fff"/>
        </g>
        <g id="Group_9195" data-name="Group 9195" transform="translate(77.019 158.328)" clip-path="url(#clip-path-2)">
          <path id="Path_5769" data-name="Path 5769" d="M234.243,90.431A2.52,2.52,0,0,1,233.5,88.5a2.627,2.627,0,0,1,4.457-1.857A2.579,2.579,0,0,1,238.7,88.5a2.464,2.464,0,0,1-.743,1.857,2.579,2.579,0,0,1-1.857.743,2.244,2.244,0,0,1-1.857-.669" transform="translate(-60.045 -22.09)" fill="#fff"/>
        </g>
        <g id="Group_9196" data-name="Group 9196" transform="translate(77.019 158.328)" clip-path="url(#clip-path-2)">
          <path id="Path_5770" data-name="Path 5770" d="M239.4,78.523a15.239,15.239,0,0,1,2.3.149,1.75,1.75,0,0,1-.891-1.709,3.272,3.272,0,0,1,1.263-2.6,6.62,6.62,0,0,1,4.309-1.263,9.622,9.622,0,0,1,2.3.223l-.446,2.6a8.564,8.564,0,0,0-1.931-.223c-1.263,0-1.931.446-1.931,1.337,0,.966.891,1.486,2.749,1.486h2.229V81.2h-9.88V78.523Z" transform="translate(-61.563 -18.798)" fill="#fff"/>
        </g>
        <g id="Group_9197" data-name="Group 9197" transform="translate(77.019 158.328)" clip-path="url(#clip-path-2)">
          <path id="Path_5771" data-name="Path 5771" d="M251.126,86.8h0v25.925H246V91.851a5.12,5.12,0,0,1,5.126-5.051" transform="translate(-63.26 -22.321)" fill="#fff"/>
        </g>
        <g id="Group_9198" data-name="Group 9198" transform="translate(77.019 158.328)" clip-path="url(#clip-path-2)">
          <line id="Line_119" data-name="Line 119" x2="68.416" transform="translate(215.574 159.266)" fill="none" stroke="#0bb594" stroke-miterlimit="10" stroke-width="1.026"/>
        </g>
        <g id="Group_9199" data-name="Group 9199" transform="translate(77.019 158.328)" clip-path="url(#clip-path-14)">
          <line id="Line_120" data-name="Line 120" x2="132.895" transform="translate(57.273 159.266)" fill="none" stroke="#0bb594" stroke-miterlimit="10" stroke-width="1.026"/>
        </g>
        <g id="Group_9200" data-name="Group 9200" transform="translate(77.019 158.328)" clip-path="url(#clip-path-2)">
          <path id="Path_5772" data-name="Path 5772" d="M142.173,137.737v20.205h-5.943V141.08a15.011,15.011,0,0,0-15.005-15.005h-12.7v30.011H98.345a10.938,10.938,0,0,1-10.92-10.92V126A10.3,10.3,0,0,0,77.1,136.326v10.326a19.909,19.909,0,0,0,19.908,19.908h22.137v-31.5h.743c3.194,0,5.051,2.6,5.051,5.868v25.628h28.228V126.52a11.21,11.21,0,0,0-10.994,11.217" transform="translate(-19.827 -32.401)" fill="#fff"/>
        </g>
        <g id="Group_9201" data-name="Group 9201" transform="translate(48.361 376.161) rotate(-45)" clip-path="url(#clip-path-14)">
          <rect id="Rectangle_5865" data-name="Rectangle 5865" width="8.394" height="8.394" transform="translate(244.396 139.284)" fill="#fff"/>
        </g>
        <g id="Group_9202" data-name="Group 9202" transform="translate(13.643 290.227) rotate(-45)" clip-path="url(#clip-path-17)">
          <rect id="Rectangle_5867" data-name="Rectangle 5867" width="8.394" height="8.394" transform="translate(123.312 138.244)" fill="#fff"/>
        </g>
        <g id="Group_9203" data-name="Group 9203" transform="translate(51.938 384.798) rotate(-45)" clip-path="url(#clip-path-14)">
          <rect id="Rectangle_5869" data-name="Rectangle 5869" width="8.394" height="8.394" transform="translate(256.653 139.284)" fill="#fff"/>
        </g>
        <g id="Group_9204" data-name="Group 9204" transform="translate(0 256.908) rotate(-45)" clip-path="url(#clip-path-14)">
          <rect id="Rectangle_5871" data-name="Rectangle 5871" width="8.394" height="8.394" transform="translate(76.29 138.095)" fill="#fff"/>
        </g>
        <g id="Group_9205" data-name="Group 9205" transform="translate(3.578 265.545) rotate(-45)" clip-path="url(#clip-path-2)">
          <rect id="Rectangle_5873" data-name="Rectangle 5873" width="8.394" height="8.394" transform="translate(88.547 138.095)" fill="#fff"/>
        </g>
      </g>
      <g id="Group_9208" data-name="Group 9208" transform="translate(166.552 -5.41)">
        <g id="Group_9207" data-name="Group 9207" clip-path="url(#clip-path-21)">
          <path id="Path_5773" data-name="Path 5773" d="M197.9,110.979,268.4,28.3l79.559,67.9-70.5,82.679Z" transform="translate(-244.105 -56.677)" fill="#fff"/>
        </g>
      </g>
      <g id="Group_9210" data-name="Group 9210" transform="translate(-26.662 -54.809)">
        <g id="Group_9209" data-name="Group 9209" clip-path="url(#clip-path-2)">
          <path id="Path_5775" data-name="Path 5775" d="M302.768,140.619h0c.149-.52.3-1.04.371-1.337h0a3.507,3.507,0,0,1-.669,1.486h0c-10.623,16.64-25.257,19.908-25.257,19.908a21.484,21.484,0,0,1-17.754-2.154c-2.9-1.337-5.571-5.646-5.571-5.646a25.758,25.758,0,0,1-3.194-14.337,11.6,11.6,0,0,1,.966-3.863l.743-1.857.817-1.634.743-1.337.371-.669.446-.52.743-.817a17.25,17.25,0,0,1,3.789-3.566l.446-.223.3-.223c1.337-1.189-.149-2.674-.149-2.674a5.406,5.406,0,0,0-4.16-1.56,15.371,15.371,0,0,0-5.72,1.634c-2.823,1.263-3.937,4.68-3.937,4.68a16.65,16.65,0,0,1-1.263,2.823c-1.189,2.674-2.6,3.269-2.6,3.269-2.9,1.634-5.943-1.04-5.943-1.04l-2.006-1.634-4.457-3.789a3.3,3.3,0,0,0-3.566-.891c-3.417,1.411-2.823,4.383-2.823,4.383.3.891-.371.966-.371.966l-.891.371a4.656,4.656,0,0,0-2.3,5.2c.446.891-.074.891-.074.891a4.643,4.643,0,0,0-2.006,1.486c-2.08,2.823-.817,4.531-.817,4.531.223.446-.149.446-.149.446a2.554,2.554,0,0,0-1.337.743,4.11,4.11,0,0,0-.594,5.051l1.857,3.194c19.165,28.3,47.839,21.988,47.839,21.988,24.365-4.011,34.022-21.914,37.291-30.085a20.445,20.445,0,0,0,.891-2.971Z" transform="translate(-55.103 -30.753)" fill="#fff"/>
        </g>
      </g>
    </g>
  </g>
</svg>
